<svg width="39" height="38" viewBox="0 0 39 38" fill="none" xmlns="http://www.w3.org/2000/svg">
<g id="search" opacity="0.41">
<path id="icon" d="M31.5333 33.25L21.5583 23.275C20.7667 23.9083 19.8562 24.4097 18.8271 24.7792C17.7979 25.1486 16.7028 25.3333 15.5417 25.3333C12.6653 25.3333 10.2309 24.3372 8.23854 22.3448C6.24618 20.3524 5.25 17.9181 5.25 15.0417C5.25 12.1653 6.24618 9.7309 8.23854 7.73854C10.2309 5.74618 12.6653 4.75 15.5417 4.75C18.4181 4.75 20.8524 5.74618 22.8448 7.73854C24.8372 9.7309 25.8333 12.1653 25.8333 15.0417C25.8333 16.2028 25.6486 17.2979 25.2792 18.3271C24.9097 19.3562 24.4083 20.2667 23.775 21.0583L33.75 31.0333L31.5333 33.25ZM15.5417 22.1667C17.5208 22.1667 19.2031 21.474 20.5885 20.0885C21.974 18.7031 22.6667 17.0208 22.6667 15.0417C22.6667 13.0625 21.974 11.3802 20.5885 9.99479C19.2031 8.60938 17.5208 7.91667 15.5417 7.91667C13.5625 7.91667 11.8802 8.60938 10.4948 9.99479C9.10938 11.3802 8.41667 13.0625 8.41667 15.0417C8.41667 17.0208 9.10938 18.7031 10.4948 20.0885C11.8802 21.474 13.5625 22.1667 15.5417 22.1667Z" fill="#1D1B20"/>
</g>
</svg>
